# Blender v2.82 (sub 7) OBJ File: ''
# www.blender.org
mtllib link0.mtl
o link0
v -0.001227 -0.094614 -0.000032
v 0.071081 0.008446 0.001340
v 0.071567 -0.001274 0.001349
v -0.000517 0.094670 -0.000006
v 0.070665 -0.011563 0.001333
v -0.135131 -0.065871 0.007520
v -0.136305 -0.065946 0.000000
v -0.131625 -0.068799 -0.000001
v 0.054335 -0.046949 0.001048
v 0.061945 -0.035978 0.001181
v 0.067359 -0.024527 0.001276
v 0.052652 -0.016356 0.140000
v 0.054855 0.004472 0.140000
v -0.054967 0.003457 0.140000
v 0.039102 0.038749 0.140000
v 0.007778 -0.091072 0.008462
v 0.039566 -0.038470 0.140003
v -0.029337 -0.046645 0.140001
v 0.000349 -0.055082 0.140000
v 0.068619 0.020818 0.001298
v 0.063587 0.032993 0.001210
v 0.052578 0.048771 0.001018
v 0.058590 0.041241 0.001123
v 0.050947 0.020789 0.140000
v -0.021853 0.050685 0.140000
v -0.031706 0.045010 0.140000
v 0.031716 0.045051 0.140000
v -0.040085 0.037834 0.140000
v -0.047704 0.027596 0.140000
v 0.004858 0.054958 0.140000
v 0.047476 -0.027926 0.140000
v -0.008865 0.054359 0.140002
v 0.027680 -0.047680 0.140000
v -0.054766 -0.005466 0.140000
v -0.052884 -0.015585 0.140000
v -0.122615 0.005636 0.061149
v -0.122711 -0.006144 0.060957
v 0.014370 -0.053249 0.139999
v -0.071675 -0.075621 0.057520
v -0.111235 -0.047477 0.059055
v -0.137824 -0.062436 0.007553
v -0.133699 0.066932 0.007415
v -0.135830 0.066315 0.000001
v -0.136293 0.064617 0.007566
v -0.131612 0.068847 0.000001
v 0.003172 0.093350 0.008631
v 0.004086 0.093982 0.000171
v 0.046247 0.030033 0.140000
v 0.054877 -0.004566 0.140000
v -0.129159 0.068684 0.007445
v -0.052861 0.015710 0.140000
v 0.020020 0.051446 0.139999
v 0.006489 0.073519 0.081080
v 0.008268 -0.091825 0.000243
v -0.046437 -0.029904 0.140000
v -0.140043 0.060723 -0.000000
v 0.007694 0.092271 0.000234
v -0.001599 0.093632 0.008492
v 0.007344 0.091447 0.008318
v -0.148808 -0.042055 -0.000000
v -0.149244 -0.037186 0.007817
v -0.152578 -0.024818 0.000000
v 0.009076 0.073715 0.078455
v -0.121673 -0.014737 0.061418
v 0.006782 -0.073532 0.080976
v -0.130951 -0.068140 0.007668
v -0.018917 -0.051755 0.140000
v -0.009084 -0.054297 0.140000
v -0.065899 -0.076548 0.058979
v -0.037696 -0.040138 0.140000
v -0.143472 -0.054862 -0.000000
v -0.145452 -0.048596 0.007682
v -0.120300 -0.023545 0.061510
v -0.118609 -0.031050 0.061340
v -0.114761 -0.041966 0.060178
v -0.154079 -0.005542 -0.000000
v -0.152725 -0.013799 0.008191
v -0.153166 -0.002036 0.008351
v -0.142117 0.055547 0.007628
v 0.053554 0.012818 0.140000
v -0.109983 0.048611 0.058880
v 0.003669 -0.093249 0.008476
v 0.003496 -0.094216 0.000178
v 0.009066 -0.073708 0.078596
v -0.117004 -0.036638 0.060836
v -0.151587 -0.024833 0.008048
v -0.152410 0.025827 -0.000000
v -0.153841 0.010576 0.000000
v -0.152020 0.021780 0.008110
v -0.121149 0.018138 0.061570
v -0.113238 0.044715 0.059685
v -0.000867 -0.093737 0.008178
v -0.141842 -0.055959 0.007617
v -0.149634 0.035582 0.007869
v -0.149290 0.040250 0.000000
v -0.152949 0.010069 0.008220
v -0.145377 0.050892 -0.000000
v -0.115710 0.039594 0.060711
v -0.023111 -0.075972 0.068968
v -0.117233 0.035881 0.060957
v -0.146172 0.046753 0.007704
v -0.119414 0.028790 0.061140
vn 0.0206 -0.0015 -0.9998
vn 0.0190 0.0001 -0.9998
vn 0.0190 -0.0000 -0.9998
vn 0.0212 0.0024 -0.9998
vn 0.0192 -0.0002 -0.9998
vn -0.5185 -0.8504 0.0894
vn 0.0223 -0.0033 -0.9997
vn 0.0218 -0.0028 -0.9998
vn 0.0203 -0.0012 -0.9998
vn -0.0000 0.0000 1.0000
vn 0.9918 0.0497 0.1175
vn 0.6929 -0.7115 0.1167
vn 0.6929 -0.7127 0.1094
vn 0.6929 -0.7115 0.1171
vn 0.0001 0.0000 1.0000
vn 0.0198 0.0008 -0.9998
vn 0.0208 0.0019 -0.9998
vn 0.0233 0.0046 -0.9997
vn 0.0227 0.0040 -0.9997
vn 0.9175 0.3800 0.1170
vn 0.0002 -0.0009 1.0000
vn 0.0001 -0.0009 1.0000
vn 0.0000 0.0001 1.0000
vn 0.0002 -0.0013 1.0000
vn -0.0001 -0.0001 1.0000
vn 0.0006 0.0000 1.0000
vn 0.0003 -0.0000 1.0000
vn -0.7590 -0.0044 0.6511
vn -0.7584 -0.0136 0.6516
vn -0.7588 -0.0078 0.6513
vn -0.7582 -0.0170 0.6519
vn -0.4885 -0.7140 0.5016
vn -0.7799 -0.6127 0.1279
vn -0.6563 0.7437 0.1268
vn -0.5132 0.8549 0.0764
vn 0.1440 0.9856 0.0892
vn 0.7941 -0.5957 0.1207
vn 0.8153 -0.5669 0.1179
vn 0.8973 -0.4253 0.1182
vn 0.9062 -0.4054 0.1200
vn 0.8489 0.5155 0.1170
vn 0.9928 0.0024 0.1196
vn -0.2569 0.9079 0.3312
vn -0.0416 0.9533 0.2992
vn 0.0340 -0.0169 -0.9993
vn -0.7958 0.5995 0.0858
vn 0.4200 0.9008 0.1106
vn 0.4240 0.8986 0.1130
vn 0.4232 0.8990 0.1125
vn 0.0479 0.0641 -0.9968
vn 0.0549 0.9903 0.1280
vn 0.0494 0.9639 0.2616
vn 0.0344 0.0175 -0.9993
vn 0.6913 0.7152 0.1030
vn 0.6915 0.7126 0.1184
vn -0.9739 -0.2130 0.0783
vn 0.8849 0.4499 0.1202
vn 0.9893 -0.0870 0.1170
vn 0.9623 -0.2458 0.1165
vn -0.1920 0.9771 0.0921
vn -0.1924 0.9774 0.0877
vn -0.1926 0.9776 0.0849
vn -0.1918 0.9768 0.0949
vn -0.1232 0.9527 0.2777
vn -0.4415 0.7665 0.4664
vn 0.4673 0.8547 0.2262
vn 0.6928 -0.7132 0.1066
vn -0.7569 -0.0565 0.6511
vn 0.1233 -0.9433 0.3083
vn -0.4939 -0.7208 0.4863
vn -0.4771 -0.8711 0.1168
vn -0.4461 -0.7949 0.4112
vn -0.0001 -0.0003 1.0000
vn -0.2290 -0.8857 0.4038
vn -0.6093 -0.5181 0.6003
vn -0.6084 -0.5197 0.5998
vn -0.6108 -0.5156 0.6009
vn -0.9204 -0.3835 0.0755
vn -0.7370 -0.1808 0.6513
vn -0.6118 -0.5140 0.6013
vn 0.4193 0.9011 0.1101
vn -0.9914 -0.0389 0.1247
vn -0.9933 -0.0773 0.0862
vn -0.8331 0.5359 0.1371
vn 0.9435 0.3086 0.1203
vn 0.9810 0.1528 0.1192
vn 0.9740 0.1942 0.1170
vn 0.7678 0.6294 0.1198
vn 0.7731 0.6230 0.1192
vn 0.7698 0.6270 0.1196
vn 0.7751 0.6205 0.1190
vn 0.9755 -0.1841 0.1204
vn -0.3341 0.8594 0.3871
vn -0.1869 0.9441 0.2716
vn -0.4616 0.7469 0.4786
vn 0.4187 0.8828 0.2128
vn 0.5168 0.8329 0.1978
vn 0.4658 -0.8782 0.1082
vn 0.4449 -0.8906 0.0944
vn 0.0506 -0.0738 -0.9960
vn 0.4588 -0.8644 0.2056
vn 0.5161 -0.8336 0.1969
vn -0.3872 -0.7896 0.4761
vn -0.2447 -0.8783 0.4107
vn -0.2085 -0.9727 0.1019
vn -0.1935 -0.9774 0.0857
vn -0.1822 -0.9782 0.0998
vn -0.5199 -0.6677 0.5329
vn -0.0002 -0.0001 1.0000
vn -0.7740 -0.3867 0.5014
vn -0.7746 -0.3853 0.5015
vn -0.7737 -0.3876 0.5013
vn -0.8368 -0.5411 0.0831
vn -0.9387 -0.3137 0.1430
vn 0.6421 0.7525 0.1463
vn -0.9750 -0.1872 0.1197
vn -0.9872 -0.1034 0.1214
vn -0.9912 0.0930 0.0941
vn -0.7460 0.1282 0.6535
vn -0.3573 0.9237 0.1380
vn -0.5623 0.6624 0.4949
vn -0.6091 0.6129 0.5034
vn 0.1834 0.9503 0.2517
vn 0.2154 0.9297 0.2988
vn 0.2290 0.9277 0.2949
vn 0.6040 -0.7795 0.1658
vn 0.2300 -0.9291 0.2897
vn 0.3722 -0.8897 0.2643
vn -0.1712 -0.9788 0.1120
vn 0.0790 -0.9916 0.1024
vn -0.7750 -0.3844 0.5016
vn -0.8901 -0.4375 0.1274
vn -0.6769 -0.5356 0.5050
vn -0.6766 -0.5359 0.5050
vn -0.6767 -0.5358 0.5050
vn -0.8446 -0.5250 0.1051
vn -0.6955 -0.3132 0.6466
vn -0.7141 -0.2636 0.6485
vn -0.9741 0.2107 0.0824
vn -0.8667 0.0209 0.4984
vn -0.9940 0.0149 0.1081
vn -0.9946 0.0182 0.1021
vn -0.9940 0.0147 0.1088
vn -0.9947 0.0189 0.1008
vn -0.9905 0.0796 0.1124
vn -0.8758 0.4752 0.0843
vn -0.6486 0.4379 0.6226
vn -0.6320 0.4703 0.6159
vn -0.5425 0.6335 0.5516
vn -0.5692 0.5932 0.5693
vn -0.8546 -0.1280 0.5032
vn 0.1874 -0.9499 0.2503
vn -0.0300 -0.9623 0.2702
vn -0.7335 -0.4600 0.5004
vn -0.8194 -0.2782 0.5011
vn -0.8193 -0.2787 0.5011
vn -0.8190 -0.2798 0.5009
vn -0.8189 -0.2803 0.5008
vn -0.8401 -0.2007 0.5039
vn -0.8655 -0.0011 0.5010
vn -0.8618 -0.0772 0.5014
vn -0.7349 0.4555 0.5025
vn -0.7878 0.3594 0.5002
vn -0.7856 0.3636 0.5006
vn -0.7892 0.3568 0.4998
vn -0.8999 0.4161 0.1307
vn -0.9349 0.3437 0.0882
vn -0.7503 -0.1101 0.6518
vn -0.7443 -0.1384 0.6533
vn -0.0486 -0.9634 0.2637
vn -0.0570 -0.9526 0.2990
vn -0.0787 -0.9458 0.3149
vn 0.0865 -0.9623 0.2580
vn 0.0989 -0.9887 0.1131
vn -0.0402 -0.9549 0.2941
vn -0.6795 -0.3646 0.6367
vn -0.8606 -0.0953 0.5004
vn -0.8661 -0.0392 0.4983
vn -0.8487 -0.1703 0.5008
vn -0.9763 0.1711 0.1323
vn -0.7843 0.3660 0.5009
vn -0.7437 0.1475 0.6521
vn -0.7564 0.0667 0.6507
vn -0.7267 0.4700 0.5010
vn -0.9460 0.2951 0.1337
vn -0.7000 0.3037 0.6463
vn -0.6906 0.3260 0.6456
vn -0.7222 0.2389 0.6491
vn -0.8610 0.0813 0.5021
vn -0.8626 0.0731 0.5005
vn -0.8621 0.0759 0.5011
vn -0.8604 0.0839 0.5026
vn -0.8235 0.2652 0.5015
vn -0.8241 0.2637 0.5013
vn -0.8231 0.2661 0.5016
vn -0.8505 0.1558 0.5023
vn -0.8503 0.1580 0.5020
vn -0.8504 0.1565 0.5022
vn -0.8503 0.1588 0.5018
vn -0.8244 0.2629 0.5012
vn -0.0001 0.0001 -1.0000
vn -0.0002 0.0001 -1.0000
vn -0.0001 0.0000 -1.0000
vn -0.0002 -0.0000 -1.0000
vn 0.0000 0.0000 -1.0000
vn 0.0001 0.0000 -1.0000
vn 0.0004 -0.0002 -1.0000
vn -0.0003 0.0001 -1.0000
vn 0.0003 -0.0000 -1.0000
vn 0.0003 -0.0001 -1.0000
vn -0.0004 0.0001 -1.0000
vn -0.0003 0.0000 -1.0000
usemtl DefaultMaterial
s 1
f 1//1 2//2 3//3
f 4//4 2//2 1//1
f 3//3 5//5 1//1
f 6//6 7//6 8//6
f 9//7 1//1 10//8
f 1//1 11//9 10//8
f 12//10 13//10 14//10
f 13//10 15//10 14//10
f 2//11 13//11 3//11
f 16//12 9//13 17//14
f 14//10 18//10 19//15
f 20//16 2//2 4//4
f 21//17 20//16 4//4
f 22//18 23//19 4//4
f 23//19 21//17 4//4
f 1//1 5//5 11//9
f 13//10 24//10 15//10
f 20//20 21//20 24//20
f 25//21 26//10 14//10
f 15//10 27//10 14//10
f 28//10 29//10 14//10
f 14//10 30//22 25//21
f 14//10 31//23 12//10
f 32//24 25//21 30//22
f 33//25 17//23 14//10
f 34//26 35//27 14//10
f 36//28 37//29 14//30
f 14//30 37//29 34//31
f 38//10 33//25 14//10
f 19//15 38//10 14//10
f 39//32 18//32 40//32
f 7//33 6//33 41//33
f 42//34 43//34 44//34
f 45//35 43//35 42//35
f 4//36 46//36 47//36
f 17//23 31//23 14//10
f 9//37 31//37 17//37
f 10//38 31//38 9//38
f 11//39 31//39 10//39
f 12//40 31//40 11//40
f 21//41 23//41 48//41
f 13//42 49//42 3//42
f 12//10 49//10 13//10
f 25//43 32//43 50//43
f 14//10 29//10 51//10
f 52//10 30//22 14//10
f 27//10 52//10 14//10
f 53//44 32//44 30//44
f 9//45 54//45 1//45
f 35//27 55//10 14//10
f 56//46 44//46 43//46
f 57//47 47//48 46//49
f 4//50 47//50 57//50
f 58//51 46//51 4//51
f 53//52 46//52 58//52
f 57//53 22//53 4//53
f 57//54 59//54 22//54
f 59//55 15//55 22//55
f 60//56 61//56 62//56
f 24//10 48//10 15//10
f 24//57 21//57 48//57
f 49//58 5//58 3//58
f 5//59 12//59 11//59
f 50//60 4//61 45//62
f 4//61 50//60 58//63
f 32//64 53//64 58//64
f 42//65 26//65 25//65
f 52//66 27//66 63//66
f 9//13 16//12 54//67
f 37//68 64//68 34//68
f 38//69 19//69 65//69
f 40//70 6//70 39//70
f 8//71 66//71 6//71
f 6//72 66//72 39//72
f 18//10 67//73 19//15
f 68//10 19//15 67//73
f 67//74 69//74 68//74
f 40//75 70//76 55//77
f 71//78 72//78 60//78
f 73//79 74//79 35//79
f 55//77 75//80 40//75
f 57//47 46//49 59//81
f 76//82 77//82 78//82
f 62//83 77//83 76//83
f 79//84 44//84 56//84
f 80//10 24//10 13//10
f 24//85 80//85 20//85
f 2//86 80//86 13//86
f 20//87 80//87 2//87
f 15//88 48//89 22//90
f 22//90 48//89 23//91
f 49//92 12//92 5//92
f 25//93 50//93 42//93
f 58//94 50//94 32//94
f 42//95 81//95 26//95
f 59//96 46//96 63//96
f 59//97 63//97 27//97
f 82//98 54//98 16//98
f 82//99 83//99 54//99
f 54//100 83//100 1//100
f 16//101 84//101 82//101
f 33//102 84//102 16//102
f 39//103 67//103 18//103
f 69//104 67//104 39//104
f 8//105 39//105 66//105
f 1//106 39//106 8//106
f 69//107 39//107 1//107
f 40//108 18//108 70//108
f 70//109 18//10 14//10
f 55//10 70//109 14//10
f 72//110 75//111 85//112
f 7//113 41//113 71//113
f 60//114 72//114 61//114
f 59//115 27//115 15//115
f 62//116 61//116 86//116
f 86//117 77//117 62//117
f 87//118 88//118 89//118
f 51//119 90//119 14//119
f 42//120 50//120 45//120
f 14//10 26//10 28//10
f 42//121 44//121 81//121
f 44//122 91//122 81//122
f 53//123 63//123 46//123
f 52//124 53//124 30//124
f 63//125 53//125 52//125
f 33//126 16//126 17//126
f 65//127 84//127 38//127
f 33//128 38//128 84//128
f 69//129 1//129 92//129
f 83//130 92//130 1//130
f 75//111 72//110 93//131
f 93//132 72//132 71//132
f 6//133 40//134 75//135
f 41//136 93//136 71//136
f 85//137 55//137 35//137
f 74//138 85//138 35//138
f 87//139 94//139 95//139
f 36//140 96//140 78//140
f 76//141 96//142 88//143
f 78//144 96//142 76//141
f 88//145 96//145 89//145
f 97//146 79//146 56//146
f 29//147 91//147 98//147
f 28//148 91//148 29//148
f 26//149 81//149 28//149
f 91//150 28//150 81//150
f 73//151 64//151 86//151
f 65//152 82//152 84//152
f 92//153 65//153 99//153
f 93//154 41//154 75//154
f 72//155 85//156 61//157
f 61//157 85//156 74//158
f 61//159 74//159 73//159
f 36//160 78//160 37//160
f 37//161 77//161 64//161
f 98//162 91//162 79//162
f 79//163 100//164 98//165
f 97//166 101//166 79//166
f 95//167 101//167 97//167
f 64//168 73//168 34//168
f 73//169 35//169 34//169
f 69//170 92//170 99//170
f 19//171 69//171 99//171
f 68//172 69//172 19//172
f 92//173 82//173 65//173
f 92//174 83//174 82//174
f 99//175 65//175 19//175
f 85//176 75//176 55//176
f 41//133 6//133 75//135
f 64//177 77//177 86//177
f 77//178 37//178 78//178
f 86//179 61//179 73//179
f 87//180 89//180 94//180
f 79//163 101//181 100//164
f 102//182 90//182 51//182
f 36//183 14//183 90//183
f 91//184 44//184 79//184
f 95//185 94//185 101//185
f 29//186 98//186 51//186
f 100//187 51//187 98//187
f 102//188 51//188 100//188
f 89//189 96//190 36//191
f 36//191 90//192 89//189
f 101//193 102//194 100//195
f 94//196 89//197 102//198
f 90//199 102//198 89//197
f 101//193 94//200 102//194
f 4//201 1//202 87//201
f 4//201 87//201 45//203
f 1//202 8//204 87//201
f 60//205 87//201 71//206
f 56//207 87//201 97//208
f 76//205 87//201 62//209
f 56//207 43//210 87//201
f 45//203 87//201 43//210
f 8//204 7//204 87//201
f 62//209 87//201 60//205
f 97//208 87//201 95//211
f 71//206 87//201 7//204
f 88//212 87//201 76//205
