# Blender v2.82 (sub 7) OBJ File: ''
# www.blender.org
mtllib link7.mtl
o link7
v -0.000489 0.030825 0.106800
v 0.031087 -0.001497 0.106799
v 0.022050 0.022362 0.106818
v -0.001018 -0.044030 0.052071
v -0.002608 -0.043852 0.096674
v -0.035310 -0.040737 0.084614
v -0.014643 0.026963 0.106821
v -0.022532 0.020709 0.106800
v -0.000489 0.030825 0.106800
v 0.080879 0.037306 0.090443
v 0.079071 0.035077 0.094492
v 0.033384 -0.028652 0.096679
v 0.080879 0.037306 0.090443
v 0.033384 -0.028652 0.096679
v 0.080795 0.036670 0.082324
v 0.033384 -0.028652 0.096679
v 0.034635 -0.027228 0.052124
v 0.080795 0.036670 0.082324
v 0.027746 -0.034283 0.052052
v 0.034635 -0.027228 0.052124
v 0.033384 -0.028652 0.096679
v 0.043768 -0.003468 0.052000
v 0.042535 0.012075 0.052003
v 0.079328 0.037021 0.076647
v 0.066782 0.054021 0.094387
v 0.055083 0.067465 0.092770
v 0.049938 0.069712 0.094904
v -0.000489 0.030825 0.106800
v -0.022532 0.020709 0.106800
v -0.030755 -0.003739 0.106804
v -0.030755 -0.003739 0.106804
v -0.022532 0.020709 0.106800
v -0.028507 0.011434 0.106802
v 0.077637 0.035709 0.095991
v 0.024465 -0.018590 0.106837
v 0.033384 -0.028652 0.096679
v 0.024465 -0.018590 0.106837
v 0.015969 -0.026112 0.106800
v 0.027071 -0.034540 0.096768
v 0.077637 0.035709 0.095991
v 0.033384 -0.028652 0.096679
v 0.079071 0.035077 0.094492
v 0.078953 0.038309 0.094703
v 0.077637 0.035709 0.095991
v 0.079799 0.037061 0.094108
v 0.022050 0.022362 0.106818
v 0.062302 0.055876 0.095824
v 0.035256 0.077529 0.096057
v -0.002946 0.043820 0.052000
v 0.036947 0.079381 0.076667
v 0.013710 0.042013 0.052003
v -0.035310 -0.040737 0.084614
v -0.040712 -0.035505 0.084714
v -0.029975 -0.032195 0.052039
v -0.035310 -0.040737 0.084614
v -0.036427 -0.039501 0.089079
v -0.037894 -0.037990 0.089726
v -0.036427 -0.039501 0.089079
v -0.035310 -0.040737 0.084614
v -0.011196 -0.042299 0.096978
v -0.002608 -0.043852 0.096674
v -0.011196 -0.042299 0.096978
v -0.035310 -0.040737 0.084614
v -0.011782 -0.042409 0.052055
v -0.001018 -0.044030 0.052071
v -0.035310 -0.040737 0.084614
v 0.002013 -0.043828 0.096804
v -0.001018 -0.044030 0.052071
v 0.008517 -0.043263 0.052105
v 0.008517 -0.043263 0.052105
v 0.018262 -0.040127 0.052101
v 0.014976 -0.041229 0.096841
v 0.002013 -0.043828 0.096804
v -0.002608 -0.043852 0.096674
v -0.001018 -0.044030 0.052071
v -0.011196 -0.042299 0.096978
v -0.002608 -0.043852 0.096674
v -0.005273 -0.030338 0.106803
v 0.006889 -0.029908 0.106800
v 0.014976 -0.041229 0.096841
v 0.015969 -0.026112 0.106800
v 0.014976 -0.041229 0.096841
v 0.021530 -0.038274 0.096689
v 0.015969 -0.026112 0.106800
v 0.018262 -0.040127 0.052101
v 0.021530 -0.038274 0.096689
v 0.014976 -0.041229 0.096841
v 0.080360 0.039083 0.092514
v 0.073059 0.050352 0.088556
v 0.072620 0.048678 0.093146
v 0.080879 0.037306 0.090443
v 0.080795 0.036670 0.082324
v 0.081306 0.039723 0.085821
v -0.000489 0.030825 0.106800
v 0.022050 0.022362 0.106818
v 0.035256 0.077529 0.096057
v 0.031087 -0.001497 0.106799
v 0.077637 0.035709 0.095991
v 0.022050 0.022362 0.106818
v 0.015969 -0.026112 0.106800
v 0.021530 -0.038274 0.096689
v 0.027071 -0.034540 0.096768
v 0.031087 -0.001497 0.106799
v 0.024465 -0.018590 0.106837
v 0.077637 0.035709 0.095991
v 0.040587 -0.017237 0.052040
v 0.043768 -0.003468 0.052000
v 0.079328 0.037021 0.076647
v 0.036947 0.079381 0.076667
v -0.002946 0.043820 0.052000
v -0.013272 0.041875 0.052005
v 0.036947 0.079381 0.076667
v -0.013272 0.041875 0.052005
v -0.023201 0.037466 0.052086
v -0.027494 0.034204 0.096755
v -0.023201 0.037466 0.052086
v -0.028757 0.033326 0.052110
v 0.035179 0.079449 0.093829
v 0.038180 0.080477 0.092822
v 0.037544 0.080963 0.089269
v 0.079328 0.037021 0.076647
v 0.042535 0.012075 0.052003
v 0.031151 0.031215 0.051991
v 0.031151 0.031215 0.051991
v 0.072975 0.047059 0.077306
v 0.079328 0.037021 0.076647
v -0.028507 0.011434 0.106802
v -0.042960 0.009041 0.096820
v -0.030755 -0.003739 0.106804
v -0.037894 -0.037990 0.089726
v -0.039666 -0.036274 0.088832
v -0.035310 -0.040737 0.084614
v -0.037013 -0.023885 0.052071
v -0.040712 -0.035505 0.084714
v -0.042725 -0.010443 0.052064
v -0.011782 -0.042409 0.052055
v -0.035310 -0.040737 0.084614
v -0.021465 -0.038373 0.052004
v -0.030755 -0.003739 0.106804
v -0.023894 -0.019355 0.106802
v -0.015706 -0.026250 0.106801
v -0.023894 -0.019355 0.106802
v -0.039005 -0.018734 0.097569
v -0.037894 -0.037990 0.089726
v -0.023894 -0.019355 0.106802
v -0.030755 -0.003739 0.106804
v -0.039005 -0.018734 0.097569
v -0.011196 -0.042299 0.096978
v -0.019961 -0.038751 0.097167
v -0.036427 -0.039501 0.089079
v 0.080879 0.037306 0.090443
v 0.080360 0.039083 0.092514
v 0.079799 0.037061 0.094108
v 0.035256 0.077529 0.096057
v -0.014643 0.026963 0.106821
v -0.000489 0.030825 0.106800
v 0.077096 0.045216 0.082172
v 0.080874 0.039108 0.079979
v 0.074201 0.047868 0.079664
v 0.064352 0.057963 0.078304
v 0.074201 0.047868 0.079664
v 0.072975 0.047059 0.077306
v 0.055083 0.067465 0.092770
v 0.046695 0.075455 0.090601
v 0.038972 0.079642 0.093692
v 0.038972 0.079642 0.093692
v 0.049938 0.069712 0.094904
v 0.055083 0.067465 0.092770
v 0.079799 0.037061 0.094108
v 0.077637 0.035709 0.095991
v 0.079071 0.035077 0.094492
v 0.077637 0.035709 0.095991
v 0.062302 0.055876 0.095824
v 0.022050 0.022362 0.106818
v 0.038152 0.080493 0.078362
v 0.039656 0.081087 0.081628
v 0.045759 0.075136 0.078404
v 0.013710 0.042013 0.052003
v 0.036947 0.079381 0.076667
v 0.031151 0.031215 0.051991
v 0.036947 0.079381 0.076667
v 0.049675 0.069797 0.076643
v 0.031151 0.031215 0.051991
v 0.063813 0.055812 0.076442
v 0.072975 0.047059 0.077306
v 0.031151 0.031215 0.051991
v 0.036935 0.078982 0.095029
v 0.038180 0.080477 0.092822
v 0.035179 0.079449 0.093829
v 0.049938 0.069712 0.094904
v 0.038972 0.079642 0.093692
v 0.036935 0.078982 0.095029
v 0.049938 0.069712 0.094904
v 0.036935 0.078982 0.095029
v 0.035256 0.077529 0.096057
v 0.035256 0.077529 0.096057
v 0.036935 0.078982 0.095029
v 0.035179 0.079449 0.093829
v -0.027494 0.034204 0.096755
v 0.035256 0.077529 0.096057
v 0.035179 0.079449 0.093829
v -0.028757 0.033326 0.052110
v -0.031876 0.030179 0.096708
v -0.027494 0.034204 0.096755
v -0.042960 0.009041 0.096820
v -0.043266 0.008526 0.052097
v -0.043904 0.002414 0.096649
v -0.042960 0.009041 0.096820
v -0.043904 0.002414 0.096649
v -0.030755 -0.003739 0.106804
v -0.039666 -0.036274 0.088832
v -0.040712 -0.035505 0.084714
v -0.035310 -0.040737 0.084614
v -0.044035 -0.001620 0.052074
v -0.043904 0.002414 0.096649
v -0.043266 0.008526 0.052097
v -0.040712 -0.035505 0.084714
v -0.037013 -0.023885 0.052071
v -0.029975 -0.032195 0.052039
v -0.044035 -0.001620 0.052074
v -0.042725 -0.010443 0.052064
v -0.040712 -0.035505 0.084714
v -0.029975 -0.032195 0.052039
v -0.021465 -0.038373 0.052004
v -0.035310 -0.040737 0.084614
v -0.005273 -0.030338 0.106803
v -0.019961 -0.038751 0.097167
v -0.011196 -0.042299 0.096978
v -0.015706 -0.026250 0.106801
v -0.019961 -0.038751 0.097167
v -0.005273 -0.030338 0.106803
v -0.039005 -0.018734 0.097569
v -0.039666 -0.036274 0.088832
v -0.037894 -0.037990 0.089726
v 0.008517 -0.043263 0.052105
v 0.014976 -0.041229 0.096841
v 0.008366 -0.043150 0.096608
v 0.008517 -0.043263 0.052105
v 0.008366 -0.043150 0.096608
v 0.002013 -0.043828 0.096804
v 0.002013 -0.043828 0.096804
v -0.005273 -0.030338 0.106803
v -0.002608 -0.043852 0.096674
v 0.080360 0.039083 0.092514
v 0.081306 0.039723 0.085821
v 0.073059 0.050352 0.088556
v 0.072620 0.048678 0.093146
v 0.066782 0.054021 0.094387
v 0.078953 0.038309 0.094703
v 0.081306 0.039723 0.085821
v 0.080874 0.039108 0.079979
v 0.077096 0.045216 0.082172
v 0.077637 0.035709 0.095991
v 0.078953 0.038309 0.094703
v 0.062302 0.055876 0.095824
v 0.040587 -0.017237 0.052040
v 0.080019 0.036309 0.078146
v 0.034635 -0.027228 0.052124
v 0.080874 0.039108 0.079979
v 0.080795 0.036670 0.082324
v 0.080019 0.036309 0.078146
v 0.081306 0.039723 0.085821
v 0.080795 0.036670 0.082324
v 0.080874 0.039108 0.079979
v 0.079328 0.037021 0.076647
v 0.080019 0.036309 0.078146
v 0.040587 -0.017237 0.052040
v 0.054765 0.067923 0.079098
v 0.065141 0.059106 0.081588
v 0.064352 0.057963 0.078304
v 0.054765 0.067923 0.079098
v 0.054797 0.069278 0.082413
v 0.065141 0.059106 0.081588
v 0.055083 0.067465 0.092770
v 0.067045 0.056241 0.091529
v 0.058682 0.065670 0.088348
v 0.033384 -0.028652 0.096679
v 0.024465 -0.018590 0.106837
v 0.027071 -0.034540 0.096768
v 0.072620 0.048678 0.093146
v 0.078953 0.038309 0.094703
v 0.080360 0.039083 0.092514
v 0.038180 0.080477 0.092822
v 0.039355 0.081097 0.089372
v 0.037544 0.080963 0.089269
v -0.027494 0.034204 0.096755
v 0.035347 0.079851 0.079387
v -0.023201 0.037466 0.052086
v 0.035179 0.079449 0.093829
v 0.035347 0.079851 0.079387
v -0.027494 0.034204 0.096755
v 0.035179 0.079449 0.093829
v 0.037544 0.080963 0.089269
v 0.035347 0.079851 0.079387
v 0.035256 0.077529 0.096057
v -0.027494 0.034204 0.096755
v -0.014643 0.026963 0.106821
v -0.034473 0.027532 0.052108
v -0.031876 0.030179 0.096708
v -0.028757 0.033326 0.052110
v -0.034473 0.027532 0.052108
v -0.036570 0.024465 0.096558
v -0.031876 0.030179 0.096708
v -0.040038 0.018477 0.052095
v -0.036570 0.024465 0.096558
v -0.034473 0.027532 0.052108
v -0.043357 -0.006639 0.096822
v -0.039666 -0.036274 0.088832
v -0.039005 -0.018734 0.097569
v -0.023894 -0.019355 0.106802
v -0.037894 -0.037990 0.089726
v -0.015706 -0.026250 0.106801
v -0.019961 -0.038751 0.097167
v -0.037894 -0.037990 0.089726
v -0.036427 -0.039501 0.089079
v -0.037894 -0.037990 0.089726
v -0.019961 -0.038751 0.097167
v -0.015706 -0.026250 0.106801
v 0.006889 -0.029908 0.106800
v 0.002013 -0.043828 0.096804
v 0.008366 -0.043150 0.096608
v 0.024465 -0.018590 0.106837
v 0.006889 -0.029908 0.106800
v 0.015969 -0.026112 0.106800
v -0.005273 -0.030338 0.106803
v 0.006889 -0.029908 0.106800
v -0.015706 -0.026250 0.106801
v 0.031087 -0.001497 0.106799
v 0.006889 -0.029908 0.106800
v 0.024465 -0.018590 0.106837
v -0.015706 -0.026250 0.106801
v 0.006889 -0.029908 0.106800
v -0.030755 -0.003739 0.106804
v 0.006889 -0.029908 0.106800
v -0.005273 -0.030338 0.106803
v 0.002013 -0.043828 0.096804
v 0.027746 -0.034283 0.052052
v 0.021530 -0.038274 0.096689
v 0.018262 -0.040127 0.052101
v 0.027071 -0.034540 0.096768
v 0.021530 -0.038274 0.096689
v 0.027746 -0.034283 0.052052
v 0.080879 0.037306 0.090443
v 0.081306 0.039723 0.085821
v 0.080360 0.039083 0.092514
v 0.080879 0.037306 0.090443
v 0.079799 0.037061 0.094108
v 0.079071 0.035077 0.094492
v 0.062302 0.055876 0.095824
v 0.066782 0.054021 0.094387
v 0.049938 0.069712 0.094904
v 0.080019 0.036309 0.078146
v 0.080795 0.036670 0.082324
v 0.034635 -0.027228 0.052124
v 0.065141 0.059106 0.081588
v 0.074201 0.047868 0.079664
v 0.064352 0.057963 0.078304
v 0.074201 0.047868 0.079664
v 0.065141 0.059106 0.081588
v 0.077096 0.045216 0.082172
v 0.067045 0.056241 0.091529
v 0.072620 0.048678 0.093146
v 0.073059 0.050352 0.088556
v 0.049938 0.069712 0.094904
v 0.035256 0.077529 0.096057
v 0.062302 0.055876 0.095824
v 0.063813 0.055812 0.076442
v 0.049675 0.069797 0.076643
v 0.064352 0.057963 0.078304
v 0.064352 0.057963 0.078304
v 0.049675 0.069797 0.076643
v 0.054765 0.067923 0.079098
v 0.054765 0.067923 0.079098
v 0.049675 0.069797 0.076643
v 0.045759 0.075136 0.078404
v 0.054765 0.067923 0.079098
v 0.045759 0.075136 0.078404
v 0.054797 0.069278 0.082413
v 0.039656 0.081087 0.081628
v 0.054797 0.069278 0.082413
v 0.045759 0.075136 0.078404
v 0.055083 0.067465 0.092770
v 0.058682 0.065670 0.088348
v 0.046695 0.075455 0.090601
v 0.039986 0.081187 0.085767
v 0.046695 0.075455 0.090601
v 0.058682 0.065670 0.088348
v 0.039986 0.081187 0.085767
v 0.058682 0.065670 0.088348
v 0.054797 0.069278 0.082413
v 0.054797 0.069278 0.082413
v 0.039656 0.081087 0.081628
v 0.039986 0.081187 0.085767
v -0.042960 0.009041 0.096820
v -0.028507 0.011434 0.106802
v -0.040085 0.017737 0.096904
v 0.078953 0.038309 0.094703
v 0.079799 0.037061 0.094108
v 0.080360 0.039083 0.092514
v -0.023201 0.037466 0.052086
v 0.035347 0.079851 0.079387
v 0.036947 0.079381 0.076667
v 0.035347 0.079851 0.079387
v 0.038152 0.080493 0.078362
v 0.036947 0.079381 0.076667
v 0.038152 0.080493 0.078362
v 0.037848 0.081131 0.082568
v 0.039656 0.081087 0.081628
v 0.037848 0.081131 0.082568
v 0.035347 0.079851 0.079387
v 0.037544 0.080963 0.089269
v 0.031151 0.031215 0.051991
v 0.049675 0.069797 0.076643
v 0.063813 0.055812 0.076442
v -0.036570 0.024465 0.096558
v -0.040038 0.018477 0.052095
v -0.040085 0.017737 0.096904
v -0.043357 -0.006639 0.096822
v -0.040712 -0.035505 0.084714
v -0.039666 -0.036274 0.088832
v -0.043357 -0.006639 0.096822
v -0.039005 -0.018734 0.097569
v -0.030755 -0.003739 0.106804
v -0.043904 0.002414 0.096649
v -0.043357 -0.006639 0.096822
v -0.030755 -0.003739 0.106804
v 0.072620 0.048678 0.093146
v 0.067045 0.056241 0.091529
v 0.066782 0.054021 0.094387
v 0.055083 0.067465 0.092770
v 0.066782 0.054021 0.094387
v 0.067045 0.056241 0.091529
v 0.078953 0.038309 0.094703
v 0.066782 0.054021 0.094387
v 0.062302 0.055876 0.095824
v 0.054797 0.069278 0.082413
v 0.058682 0.065670 0.088348
v 0.065141 0.059106 0.081588
v 0.077096 0.045216 0.082172
v 0.073059 0.050352 0.088556
v 0.081306 0.039723 0.085821
v 0.073059 0.050352 0.088556
v 0.058682 0.065670 0.088348
v 0.067045 0.056241 0.091529
v 0.065141 0.059106 0.081588
v 0.073059 0.050352 0.088556
v 0.077096 0.045216 0.082172
v 0.036947 0.079381 0.076667
v 0.038152 0.080493 0.078362
v 0.045759 0.075136 0.078404
v 0.046695 0.075455 0.090601
v 0.039986 0.081187 0.085767
v 0.039355 0.081097 0.089372
v -0.031876 0.030179 0.096708
v -0.036570 0.024465 0.096558
v -0.022532 0.020709 0.106800
v -0.040085 0.017737 0.096904
v -0.028507 0.011434 0.106802
v -0.036570 0.024465 0.096558
v -0.022532 0.020709 0.106800
v -0.036570 0.024465 0.096558
v -0.028507 0.011434 0.106802
v 0.037848 0.081131 0.082568
v 0.037544 0.080963 0.089269
v 0.039355 0.081097 0.089372
v 0.049675 0.069797 0.076643
v 0.036947 0.079381 0.076667
v 0.045759 0.075136 0.078404
v 0.080019 0.036309 0.078146
v 0.079328 0.037021 0.076647
v 0.080874 0.039108 0.079979
v 0.079328 0.037021 0.076647
v 0.079836 0.038627 0.077757
v 0.080874 0.039108 0.079979
v 0.072975 0.047059 0.077306
v 0.079836 0.038627 0.077757
v 0.079328 0.037021 0.076647
v 0.036935 0.078982 0.095029
v 0.038972 0.079642 0.093692
v 0.038180 0.080477 0.092822
v 0.046695 0.075455 0.090601
v 0.038180 0.080477 0.092822
v 0.038972 0.079642 0.093692
v 0.039355 0.081097 0.089372
v 0.038180 0.080477 0.092822
v 0.046695 0.075455 0.090601
v -0.027494 0.034204 0.096755
v -0.022532 0.020709 0.106800
v -0.014643 0.026963 0.106821
v 0.014976 -0.041229 0.096841
v 0.006889 -0.029908 0.106800
v 0.008366 -0.043150 0.096608
v 0.039355 0.081097 0.089372
v 0.039986 0.081187 0.085767
v 0.037848 0.081131 0.082568
v 0.037848 0.081131 0.082568
v 0.039986 0.081187 0.085767
v 0.039656 0.081087 0.081628
v 0.038152 0.080493 0.078362
v 0.035347 0.079851 0.079387
v 0.037848 0.081131 0.082568
v 0.072975 0.047059 0.077306
v 0.063813 0.055812 0.076442
v 0.064352 0.057963 0.078304
v -0.031876 0.030179 0.096708
v -0.022532 0.020709 0.106800
v -0.027494 0.034204 0.096755
v -0.040085 0.017737 0.096904
v -0.040038 0.018477 0.052095
v -0.042960 0.009041 0.096820
v -0.043266 0.008526 0.052097
v -0.042960 0.009041 0.096820
v -0.040038 0.018477 0.052095
v 0.065141 0.059106 0.081588
v 0.058682 0.065670 0.088348
v 0.073059 0.050352 0.088556
v 0.033384 -0.028652 0.096679
v 0.027071 -0.034540 0.096768
v 0.027746 -0.034283 0.052052
v 0.072975 0.047059 0.077306
v 0.074201 0.047868 0.079664
v 0.079836 0.038627 0.077757
v 0.080874 0.039108 0.079979
v 0.079836 0.038627 0.077757
v 0.074201 0.047868 0.079664
v -0.043357 -0.006639 0.096822
v -0.043904 0.002414 0.096649
v -0.044035 -0.001620 0.052074
v -0.040712 -0.035505 0.084714
v -0.043357 -0.006639 0.096822
v -0.044035 -0.001620 0.052074
v -0.002946 0.043820 0.052000
v 0.013710 0.042013 0.052003
v -0.021465 -0.038373 0.052004
v 0.034635 -0.027228 0.052124
v 0.027746 -0.034283 0.052052
v -0.021465 -0.038373 0.052004
v 0.031151 0.031215 0.051991
v 0.042535 0.012075 0.052003
v -0.021465 -0.038373 0.052004
v 0.043768 -0.003468 0.052000
v -0.021465 -0.038373 0.052004
v 0.042535 0.012075 0.052003
v 0.018262 -0.040127 0.052101
v 0.008517 -0.043263 0.052105
v -0.021465 -0.038373 0.052004
v -0.037013 -0.023885 0.052071
v -0.042725 -0.010443 0.052064
v -0.021465 -0.038373 0.052004
v -0.028757 0.033326 0.052110
v -0.023201 0.037466 0.052086
v -0.021465 -0.038373 0.052004
v -0.034473 0.027532 0.052108
v -0.028757 0.033326 0.052110
v -0.021465 -0.038373 0.052004
v -0.044035 -0.001620 0.052074
v -0.021465 -0.038373 0.052004
v -0.042725 -0.010443 0.052064
v -0.001018 -0.044030 0.052071
v -0.021465 -0.038373 0.052004
v 0.008517 -0.043263 0.052105
v 0.027746 -0.034283 0.052052
v 0.018262 -0.040127 0.052101
v -0.021465 -0.038373 0.052004
v -0.002946 0.043820 0.052000
v -0.021465 -0.038373 0.052004
v -0.013272 0.041875 0.052005
v 0.031151 0.031215 0.051991
v -0.021465 -0.038373 0.052004
v 0.013710 0.042013 0.052003
v -0.043266 0.008526 0.052097
v -0.021465 -0.038373 0.052004
v -0.044035 -0.001620 0.052074
v -0.011782 -0.042409 0.052055
v -0.021465 -0.038373 0.052004
v -0.001018 -0.044030 0.052071
v 0.040587 -0.017237 0.052040
v -0.021465 -0.038373 0.052004
v 0.043768 -0.003468 0.052000
v -0.013272 0.041875 0.052005
v -0.021465 -0.038373 0.052004
v -0.023201 0.037466 0.052086
v -0.040038 0.018477 0.052095
v -0.034473 0.027532 0.052108
v -0.021465 -0.038373 0.052004
v -0.037013 -0.023885 0.052071
v -0.021465 -0.038373 0.052004
v -0.029975 -0.032195 0.052039
v 0.040587 -0.017237 0.052040
v 0.034635 -0.027228 0.052124
v -0.021465 -0.038373 0.052004
v -0.043266 0.008526 0.052097
v -0.040038 0.018477 0.052095
v -0.021465 -0.038373 0.052004
v -0.000489 0.030825 0.106800
v 0.006889 -0.029908 0.106800
v 0.031087 -0.001497 0.106799
v -0.030755 -0.003739 0.106804
v 0.006889 -0.029908 0.106800
v -0.000489 0.030825 0.106800
vn -0.0013 -0.0013 1.0000
vn -0.0950 -0.9955 0.0006
vn 0.0037 -0.0080 1.0000
vn 0.8127 -0.5811 0.0431
vn 0.8126 -0.5816 0.0372
vn 0.8097 -0.5868 0.0040
vn 0.7155 -0.6986 -0.0022
vn 0.5359 0.0426 -0.8432
vn 0.5116 0.5268 0.6788
vn -0.0001 0.0002 1.0000
vn 0.0002 0.0001 1.0000
vn 0.5110 -0.3429 0.7883
vn 0.3905 -0.4450 0.8059
vn 0.5779 -0.3897 0.7170
vn 0.6335 0.0615 0.7713
vn 0.1353 0.1584 0.9781
vn 0.0571 0.5250 -0.8492
vn -0.6689 -0.6849 -0.2892
vn -0.7141 -0.6999 0.0153
vn -0.1757 -0.9592 0.2216
vn -0.1672 -0.9645 0.2043
vn -0.1486 -0.9873 -0.0567
vn 0.0802 -0.9968 -0.0009
vn 0.3063 -0.9519 -0.0009
vn 0.0051 -1.0000 0.0042
vn -0.0821 -0.6080 0.7897
vn 0.2283 -0.5460 0.8060
vn 0.2631 -0.5428 0.7976
vn 0.4111 -0.9116 0.0077
vn 0.7547 0.5898 0.2873
vn 0.9857 -0.1685 0.0030
vn 0.0653 0.1760 0.9822
vn 0.1755 0.0657 0.9823
vn 0.3317 -0.5088 0.7944
vn 0.3143 -0.1197 0.9417
vn 0.6781 -0.1587 -0.7176
vn -0.1239 0.6556 -0.7448
vn -0.3583 0.7982 -0.4843
vn -0.5976 0.8018 0.0011
vn -0.2651 0.9478 0.1771
vn 0.4175 0.2478 -0.8742
vn 0.4029 0.3115 -0.8606
vn -0.5757 0.0854 0.8132
vn -0.7024 -0.7113 0.0273
vn -0.8942 -0.3801 -0.2366
vn -0.3739 -0.9000 -0.2240
vn 0.0000 -0.0001 1.0000
vn -0.4986 -0.3515 0.7924
vn -0.5146 -0.2262 0.8270
vn -0.2784 -0.7217 0.6338
vn 0.9590 -0.0457 0.2795
vn -0.0742 0.2772 0.9580
vn 0.7688 0.5756 -0.2786
vn 0.6432 0.5567 -0.5257
vn 0.5576 0.7045 0.4390
vn 0.5157 0.6391 0.5706
vn 0.6928 -0.1164 0.7117
vn 0.1595 0.1294 0.9787
vn 0.5333 0.7543 -0.3829
vn 0.2570 0.4160 -0.8723
vn 0.3035 0.4053 -0.8623
vn 0.3949 0.3286 -0.8580
vn -0.1208 0.8521 0.5093
vn 0.3596 0.4938 0.7917
vn 0.2547 0.3451 0.9033
vn -0.2412 0.7309 0.6384
vn -0.4540 0.6670 0.5908
vn -0.6766 0.7363 0.0046
vn -0.9900 0.1409 0.0052
vn -0.5912 0.0634 0.8040
vn -0.6948 -0.7180 0.0422
vn -0.9971 0.0755 -0.0039
vn -0.7281 -0.6155 -0.3016
vn -0.9879 -0.1466 -0.0516
vn -0.5622 -0.7727 -0.2947
vn -0.2082 -0.5572 0.8038
vn -0.2153 -0.5491 0.8076
vn -0.6538 -0.3175 0.6869
vn 0.2791 -0.9603 0.0034
vn 0.1061 -0.9943 0.0029
vn -0.0193 -0.6021 0.7982
vn 0.7993 0.5769 0.1682
vn 0.5564 0.4451 0.7016
vn 0.8247 0.5529 -0.1193
vn 0.3456 0.2703 0.8986
vn 0.8339 -0.4987 -0.2366
vn 0.9684 -0.1885 -0.1635
vn 0.9936 -0.0933 -0.0637
vn 0.7890 -0.3276 -0.5197
vn 0.6496 0.6560 -0.3843
vn 0.6591 0.6938 -0.2901
vn 0.6737 0.6883 0.2691
vn 0.4173 -0.4354 0.7977
vn 0.6482 0.4841 0.5878
vn -0.0811 0.9855 0.1493
vn -0.5872 0.8094 0.0027
vn -0.5848 0.8110 0.0157
vn -0.5143 0.8574 0.0178
vn -0.3388 0.5035 0.7948
vn -0.7119 0.7023 -0.0002
vn -0.7727 0.6347 0.0073
vn -0.8519 0.5236 -0.0041
vn -0.7895 -0.2495 0.5607
vn -0.3810 -0.4525 0.8063
vn -0.3230 -0.6200 0.7151
vn -0.3511 -0.4937 0.7956
vn 0.0887 -0.6013 0.7941
vn 0.0039 -0.0093 0.9999
vn 0.0002 0.0010 1.0000
vn -0.0047 0.0040 1.0000
vn 0.0210 -0.5880 0.8086
vn 0.5246 -0.8514 -0.0031
vn 0.5589 -0.8293 0.0037
vn 0.9823 0.1124 0.1497
vn 0.9231 -0.2899 0.2526
vn 0.4344 0.4405 0.7856
vn 0.8292 -0.5487 -0.1065
vn 0.6870 0.6191 -0.3805
vn 0.7479 0.6357 -0.1910
vn 0.7389 0.6072 0.2921
vn 0.2059 0.2470 0.9469
vn 0.4845 0.5001 -0.7178
vn 0.5184 0.5511 -0.6539
vn 0.5169 0.5852 -0.6248
vn 0.6096 0.7317 -0.3051
vn 0.6029 0.7561 -0.2544
vn 0.6412 0.7339 0.2241
vn 0.6357 0.7713 0.0324
vn 0.6332 0.7720 0.0548
vn 0.6158 0.7850 -0.0681
vn -0.5790 0.1838 0.7943
vn 0.7736 0.2459 0.5841
vn -0.4155 0.8232 -0.3869
vn -0.3273 0.8798 -0.3448
vn -0.0560 0.9865 -0.1537
vn -0.4570 0.8894 0.0015
vn 0.3583 0.3745 -0.8552
vn -0.8862 0.4633 0.0067
vn -0.9614 -0.1766 0.2110
vn -0.5892 -0.1632 0.7913
vn -0.6176 -0.0222 0.7862
vn 0.6377 0.5788 0.5083
vn 0.6128 0.5957 0.5192
vn 0.4108 0.3353 0.8478
vn 0.7000 0.7138 -0.0243
vn 0.7910 0.6117 0.0080
vn 0.7235 0.6806 0.1155
vn 0.7581 0.6506 -0.0442
vn 0.4207 0.5920 -0.6874
vn 0.5917 0.7967 0.1235
vn -0.4795 0.3733 0.7942
vn -0.5147 0.3099 0.7994
vn -0.5001 0.3223 0.8037
vn -0.0747 0.9970 0.0215
vn 0.4056 0.5406 -0.7370
vn 0.9076 -0.0021 -0.4198
vn 0.9055 0.0068 -0.4244
vn 0.5102 0.3738 -0.7746
vn 0.1490 0.7775 0.6109
vn 0.5405 0.7961 0.2721
vn 0.5419 0.7755 0.3239
vn -0.3696 0.4635 0.8053
vn 0.1446 -0.5934 0.7918
vn -0.0508 0.9986 0.0162
vn 0.0111 0.9996 -0.0251
vn -0.2765 0.9470 -0.1636
vn 0.5239 0.4787 -0.7045
vn -0.4137 0.4408 0.7966
vn -0.9495 0.3138 0.0042
vn -0.9512 0.3086 0.0030
vn 0.7286 0.6843 0.0317
vn 0.6821 -0.7313 0.0061
vn 0.6723 0.5189 -0.5279
vn 0.7181 0.5308 -0.4501
vn -0.9982 -0.0601 0.0084
vn -0.9956 -0.0932 0.0046
vn 0.0001 -0.0001 -1.0000
vn 0.0001 0.0100 -0.9999
vn 0.0003 -0.0004 -1.0000
vn -0.0001 0.0001 -1.0000
vn 0.0021 -0.0078 -1.0000
vn -0.0080 -0.0039 -1.0000
vn -0.0050 0.0010 -1.0000
vn -0.0011 0.0014 -1.0000
vn -0.0016 0.0009 -1.0000
vn 0.0035 0.0009 -1.0000
vn 0.0019 -0.0115 -0.9999
vn -0.0005 0.0001 -1.0000
vn -0.0006 0.0002 -1.0000
vn 0.0006 0.0023 -1.0000
vn -0.0006 -0.0139 -0.9999
vn 0.0017 -0.0033 -1.0000
vn -0.0086 0.0009 -1.0000
vn -0.0001 0.0016 -1.0000
vn -0.0034 0.0010 -1.0000
vn 0.0043 -0.0109 -0.9999
vn -0.0028 0.0007 -1.0000
vn 0.0000 0.0000 1.0000
vn 0.0001 0.0000 1.0000
usemtl DefaultMaterial
s 1
f 1//1 2//1 3//1
f 4//2 5//2 6//2
f 7//3 8//3 9//3
f 10//4 11//4 12//4
f 13//5 14//5 15//5
f 16//6 17//6 18//6
f 19//7 20//7 21//7
f 22//8 23//8 24//8
f 25//9 26//9 27//9
f 28//10 29//10 30//10
f 31//11 32//11 33//11
f 34//12 35//12 36//12
f 37//13 38//13 39//13
f 40//14 41//14 42//14
f 43//15 44//15 45//15
f 46//16 47//16 48//16
f 49//17 50//17 51//17
f 52//18 53//18 54//18
f 55//19 56//19 57//19
f 58//20 59//20 60//20
f 61//21 62//21 63//21
f 64//22 65//22 66//22
f 67//23 68//23 69//23
f 70//24 71//24 72//24
f 73//25 74//25 75//25
f 76//26 77//26 78//26
f 79//27 80//27 81//27
f 82//28 83//28 84//28
f 85//29 86//29 87//29
f 88//30 89//30 90//30
f 91//31 92//31 93//31
f 94//32 95//32 96//32
f 97//33 98//33 99//33
f 100//34 101//34 102//34
f 103//35 104//35 105//35
f 106//36 107//36 108//36
f 109//37 110//37 111//37
f 112//38 113//38 114//38
f 115//39 116//39 117//39
f 118//40 119//40 120//40
f 121//41 122//41 123//41
f 124//42 125//42 126//42
f 127//43 128//43 129//43
f 130//44 131//44 132//44
f 133//45 134//45 135//45
f 136//46 137//46 138//46
f 139//47 140//47 141//47
f 142//48 143//48 144//48
f 145//49 146//49 147//49
f 148//50 149//50 150//50
f 151//51 152//51 153//51
f 154//52 155//52 156//52
f 157//53 158//53 159//53
f 160//54 161//54 162//54
f 163//55 164//55 165//55
f 166//56 167//56 168//56
f 169//57 170//57 171//57
f 172//58 173//58 174//58
f 175//59 176//59 177//59
f 178//60 179//60 180//60
f 181//61 182//61 183//61
f 184//62 185//62 186//62
f 187//63 188//63 189//63
f 190//64 191//64 192//64
f 193//65 194//65 195//65
f 196//66 197//66 198//66
f 199//67 200//67 201//67
f 202//68 203//68 204//68
f 205//69 206//69 207//69
f 208//70 209//70 210//70
f 211//71 212//71 213//71
f 214//72 215//72 216//72
f 217//73 218//73 219//73
f 220//74 221//74 222//74
f 223//75 224//75 225//75
f 226//76 227//76 228//76
f 229//77 230//77 231//77
f 232//78 233//78 234//78
f 235//79 236//79 237//79
f 238//80 239//80 240//80
f 241//81 242//81 243//81
f 244//82 245//82 246//82
f 247//83 248//83 249//83
f 250//84 251//84 252//84
f 253//85 254//85 255//85
f 256//86 257//86 258//86
f 259//87 260//87 261//87
f 262//88 263//88 264//88
f 265//89 266//89 267//89
f 268//90 269//90 270//90
f 271//91 272//91 273//91
f 274//92 275//92 276//92
f 277//93 278//93 279//93
f 280//94 281//94 282//94
f 283//95 284//95 285//95
f 286//96 287//96 288//96
f 289//97 290//97 291//97
f 292//98 293//98 294//98
f 295//99 296//99 297//99
f 298//100 299//100 300//100
f 301//101 302//101 303//101
f 304//102 305//102 306//102
f 307//103 308//103 309//103
f 310//104 311//104 312//104
f 313//105 314//105 315//105
f 316//106 317//106 318//106
f 319//107 320//107 321//107
f 322//108 323//108 324//108
f 325//109 326//109 327//109
f 328//110 329//110 330//110
f 331//47 332//47 333//47
f 334//111 335//111 336//111
f 337//112 338//112 339//112
f 340//113 341//113 342//113
f 343//114 344//114 345//114
f 346//115 347//115 348//115
f 349//116 350//116 351//116
f 352//117 353//117 354//117
f 355//118 356//118 357//118
f 358//119 359//119 360//119
f 361//120 362//120 363//120
f 364//121 365//121 366//121
f 367//122 368//122 369//122
f 370//123 371//123 372//123
f 373//124 374//124 375//124
f 376//125 377//125 378//125
f 379//126 380//126 381//126
f 382//127 383//127 384//127
f 385//128 386//128 387//128
f 388//129 389//129 390//129
f 391//130 392//130 393//130
f 394//131 395//131 396//131
f 397//132 398//132 399//132
f 400//133 401//133 402//133
f 403//134 404//134 405//134
f 406//135 407//135 408//135
f 409//136 410//136 411//136
f 412//137 413//137 414//137
f 415//138 416//138 417//138
f 418//139 419//139 420//139
f 421//140 422//140 423//140
f 424//141 425//141 426//141
f 427//142 428//142 429//142
f 430//143 431//143 432//143
f 433//144 434//144 435//144
f 436//145 437//145 438//145
f 439//146 440//146 441//146
f 442//147 443//147 444//147
f 445//148 446//148 447//148
f 448//149 449//149 450//149
f 451//150 452//150 453//150
f 454//151 455//151 456//151
f 457//152 458//152 459//152
f 460//153 461//153 462//153
f 463//154 464//154 465//154
f 466//155 467//155 468//155
f 469//156 470//156 471//156
f 472//157 473//157 474//157
f 475//158 476//158 477//158
f 478//159 479//159 480//159
f 481//160 482//160 483//160
f 484//161 485//161 486//161
f 487//162 488//162 489//162
f 490//163 491//163 492//163
f 493//164 494//164 495//164
f 496//165 497//165 498//165
f 499//166 500//166 501//166
f 502//167 503//167 504//167
f 505//168 506//168 507//168
f 508//169 509//169 510//169
f 511//170 512//170 513//170
f 514//171 515//171 516//171
f 517//172 518//172 519//172
f 520//173 521//173 522//173
f 523//174 524//174 525//174
f 526//175 527//175 528//175
f 529//176 530//176 531//176
f 532//177 533//177 534//177
f 535//178 536//178 537//178
f 538//179 539//179 540//179
f 541//180 542//180 543//180
f 544//181 545//181 546//181
f 547//182 548//182 549//182
f 550//183 551//183 552//183
f 553//184 554//184 555//184
f 556//185 557//185 558//185
f 559//186 560//186 561//186
f 562//187 563//187 564//187
f 565//188 566//188 567//188
f 568//189 569//189 570//189
f 571//190 572//190 573//190
f 574//191 575//191 576//191
f 577//192 578//192 579//192
f 580//193 581//193 582//193
f 583//194 584//194 585//194
f 586//195 587//195 588//195
f 589//196 590//196 591//196
f 592//197 593//197 594//197
f 595//198 596//198 597//198
f 598//199 599//199 600//199
